# xmcd
#
# Track frame offsets:
#	150
#	20990
#	34380
#	48214
#	64987
#	78407
#	93705
#	111792
#	123865
#	138362
#	155345
#	172782
#
# Disc length: 2426 seconds
#
# Revision: 1
# Processed by: cddbd v1.5.2PL0 Copyright (c) Steve Scherf et al.
# Submitted via: audiograbber 1.82.02
#
DISCID=9d09780c
DTITLE=Paul McCloud - Up To My Heart
DYEAR=1978
DGENRE=Country
TTITLE0=Orphan Of The Road
TTITLE1=(In It) Up To My Heart
TTITLE2=When She Loves You
TTITLE3=Marching Diggers
TTITLE4=God Dwells Within
TTITLE5=Veil Of White Lace 2
TTITLE6=Annie's Story
TTITLE7=Mysteries Of Life
TTITLE8=Makin' Love With Our Eyes
TTITLE9=A Grown Man Still Can Cry
TTITLE10=Ballad Of George And Jean
TTITLE11=Try A Little Kindness
EXTD=
EXTT0=
EXTT1=
EXTT2=
EXTT3=
EXTT4=
EXTT5=
EXTT6=
EXTT7=
EXTT8=
EXTT9=
EXTT10=
EXTT11=
PLAYORDER=
